<mxfile host="65bd71144e" pages="2">
    <diagram id="qdseICyviGaQcKgYnbgp" name="01 Ingress Controller">
        <mxGraphModel dx="937" dy="566" grid="0" gridSize="10" guides="1" tooltips="1" connect="1" arrows="1" fold="1" page="0" pageScale="1" pageWidth="1169" pageHeight="827" math="0" shadow="0">
            <root>
                <mxCell id="0"/>
                <mxCell id="1" parent="0"/>
                <mxCell id="9gB1FN2BUZfFwONEEU95-3" value="" style="rounded=0;whiteSpace=wrap;html=1;fillColor=#d5e8d4;strokeColor=#82b366;" parent="1" vertex="1">
                    <mxGeometry x="326" y="72" width="971" height="486" as="geometry"/>
                </mxCell>
                <mxCell id="9gB1FN2BUZfFwONEEU95-24" value="" style="rounded=0;whiteSpace=wrap;html=1;fillColor=#d5e8d4;strokeColor=#82b366;" parent="1" vertex="1">
                    <mxGeometry x="326" y="879" width="971" height="546" as="geometry"/>
                </mxCell>
                <mxCell id="9gB1FN2BUZfFwONEEU95-47" value="&lt;b&gt;ns: application 1&lt;/b&gt;" style="rounded=0;whiteSpace=wrap;html=1;fillColor=#fff2cc;strokeColor=#d6b656;align=left;horizontal=1;verticalAlign=top;" parent="1" vertex="1">
                    <mxGeometry x="364" y="1226" width="679" height="182" as="geometry"/>
                </mxCell>
                <mxCell id="9gB1FN2BUZfFwONEEU95-1" value="Actor" style="shape=umlActor;verticalLabelPosition=bottom;verticalAlign=top;html=1;outlineConnect=0;" parent="1" vertex="1">
                    <mxGeometry x="173" y="141.5" width="30" height="60" as="geometry"/>
                </mxCell>
                <mxCell id="9gB1FN2BUZfFwONEEU95-6" value="&lt;b&gt;ns: ingress controller&lt;/b&gt;" style="rounded=0;whiteSpace=wrap;html=1;fillColor=#fff2cc;strokeColor=#d6b656;align=left;horizontal=1;verticalAlign=top;" parent="1" vertex="1">
                    <mxGeometry x="342" y="85.5" width="682" height="241" as="geometry"/>
                </mxCell>
                <mxCell id="9gB1FN2BUZfFwONEEU95-10" style="edgeStyle=orthogonalEdgeStyle;rounded=0;orthogonalLoop=1;jettySize=auto;html=1;" parent="1" source="9gB1FN2BUZfFwONEEU95-5" target="9gB1FN2BUZfFwONEEU95-9" edge="1">
                    <mxGeometry relative="1" as="geometry"/>
                </mxCell>
                <mxCell id="9gB1FN2BUZfFwONEEU95-5" value="kind: service&lt;br&gt;NodePort | LoadBalancer" style="rounded=0;whiteSpace=wrap;html=1;" parent="1" vertex="1">
                    <mxGeometry x="359" y="150" width="157" height="43" as="geometry"/>
                </mxCell>
                <mxCell id="9gB1FN2BUZfFwONEEU95-13" style="edgeStyle=orthogonalEdgeStyle;rounded=0;orthogonalLoop=1;jettySize=auto;html=1;entryX=0;entryY=0.5;entryDx=0;entryDy=0;startArrow=none;startFill=0;dashed=1;" parent="1" source="9gB1FN2BUZfFwONEEU95-9" target="9gB1FN2BUZfFwONEEU95-12" edge="1">
                    <mxGeometry relative="1" as="geometry"/>
                </mxCell>
                <mxCell id="9gB1FN2BUZfFwONEEU95-9" value="kind: Pod&lt;br&gt;Ingress Controller" style="rounded=1;whiteSpace=wrap;html=1;" parent="1" vertex="1">
                    <mxGeometry x="602" y="141.5" width="120" height="60" as="geometry"/>
                </mxCell>
                <mxCell id="9gB1FN2BUZfFwONEEU95-11" value="&lt;b&gt;ns: application 1&lt;/b&gt;" style="rounded=0;whiteSpace=wrap;html=1;fillColor=#fff2cc;strokeColor=#d6b656;align=left;horizontal=1;verticalAlign=top;" parent="1" vertex="1">
                    <mxGeometry x="345" y="359" width="679" height="182" as="geometry"/>
                </mxCell>
                <mxCell id="9gB1FN2BUZfFwONEEU95-12" value="kind: IngressClass" style="rounded=1;whiteSpace=wrap;html=1;fillColor=#dae8fc;strokeColor=#6c8ebf;" parent="1" vertex="1">
                    <mxGeometry x="808" y="141.5" width="120" height="60" as="geometry"/>
                </mxCell>
                <mxCell id="9gB1FN2BUZfFwONEEU95-17" style="edgeStyle=orthogonalEdgeStyle;rounded=0;orthogonalLoop=1;jettySize=auto;html=1;entryX=0;entryY=0.5;entryDx=0;entryDy=0;startArrow=none;startFill=0;" parent="1" source="9gB1FN2BUZfFwONEEU95-14" target="9gB1FN2BUZfFwONEEU95-15" edge="1">
                    <mxGeometry relative="1" as="geometry"/>
                </mxCell>
                <mxCell id="9gB1FN2BUZfFwONEEU95-18" style="edgeStyle=orthogonalEdgeStyle;rounded=0;orthogonalLoop=1;jettySize=auto;html=1;entryX=0;entryY=0.5;entryDx=0;entryDy=0;startArrow=none;startFill=0;" parent="1" source="9gB1FN2BUZfFwONEEU95-14" target="9gB1FN2BUZfFwONEEU95-16" edge="1">
                    <mxGeometry relative="1" as="geometry"/>
                </mxCell>
                <mxCell id="9gB1FN2BUZfFwONEEU95-14" value="kind: Service" style="rounded=0;whiteSpace=wrap;html=1;" parent="1" vertex="1">
                    <mxGeometry x="684" y="417" width="120" height="39" as="geometry"/>
                </mxCell>
                <mxCell id="9gB1FN2BUZfFwONEEU95-15" value="kind: pod&lt;br&gt;Application 1 - 0" style="rounded=1;whiteSpace=wrap;html=1;" parent="1" vertex="1">
                    <mxGeometry x="887" y="372" width="120" height="60" as="geometry"/>
                </mxCell>
                <mxCell id="9gB1FN2BUZfFwONEEU95-16" value="kind: pod&lt;br&gt;Application 1 - 2" style="rounded=1;whiteSpace=wrap;html=1;" parent="1" vertex="1">
                    <mxGeometry x="887" y="452" width="120" height="60" as="geometry"/>
                </mxCell>
                <mxCell id="9gB1FN2BUZfFwONEEU95-22" style="edgeStyle=orthogonalEdgeStyle;rounded=0;orthogonalLoop=1;jettySize=auto;html=1;startArrow=none;startFill=0;exitX=0.75;exitY=0;exitDx=0;exitDy=0;dashed=1;" parent="1" source="9gB1FN2BUZfFwONEEU95-19" target="9gB1FN2BUZfFwONEEU95-12" edge="1">
                    <mxGeometry relative="1" as="geometry">
                        <Array as="points">
                            <mxPoint x="521" y="314"/>
                            <mxPoint x="868" y="314"/>
                        </Array>
                    </mxGeometry>
                </mxCell>
                <mxCell id="9gB1FN2BUZfFwONEEU95-19" value="kind: Ingress" style="rounded=1;whiteSpace=wrap;html=1;fillColor=#dae8fc;strokeColor=#6c8ebf;" parent="1" vertex="1">
                    <mxGeometry x="431" y="415" width="120" height="60" as="geometry"/>
                </mxCell>
                <mxCell id="9gB1FN2BUZfFwONEEU95-20" style="edgeStyle=orthogonalEdgeStyle;rounded=0;orthogonalLoop=1;jettySize=auto;html=1;startArrow=none;startFill=0;dashed=1;exitX=0.25;exitY=1;exitDx=0;exitDy=0;entryX=0.317;entryY=0.017;entryDx=0;entryDy=0;entryPerimeter=0;" parent="1" source="9gB1FN2BUZfFwONEEU95-9" target="9gB1FN2BUZfFwONEEU95-19" edge="1">
                    <mxGeometry relative="1" as="geometry">
                        <Array as="points">
                            <mxPoint x="632" y="292"/>
                            <mxPoint x="469" y="292"/>
                        </Array>
                    </mxGeometry>
                </mxCell>
                <mxCell id="9gB1FN2BUZfFwONEEU95-21" style="edgeStyle=orthogonalEdgeStyle;rounded=0;orthogonalLoop=1;jettySize=auto;html=1;entryX=0;entryY=0.5;entryDx=0;entryDy=0;startArrow=none;startFill=0;" parent="1" source="9gB1FN2BUZfFwONEEU95-9" target="9gB1FN2BUZfFwONEEU95-14" edge="1">
                    <mxGeometry relative="1" as="geometry">
                        <Array as="points">
                            <mxPoint x="661" y="437"/>
                        </Array>
                    </mxGeometry>
                </mxCell>
                <mxCell id="9gB1FN2BUZfFwONEEU95-23" style="edgeStyle=orthogonalEdgeStyle;rounded=0;orthogonalLoop=1;jettySize=auto;html=1;entryX=0;entryY=0.5;entryDx=0;entryDy=0;startArrow=none;startFill=0;" parent="1" source="9gB1FN2BUZfFwONEEU95-1" target="9gB1FN2BUZfFwONEEU95-5" edge="1">
                    <mxGeometry relative="1" as="geometry"/>
                </mxCell>
                <mxCell id="9gB1FN2BUZfFwONEEU95-25" value="&lt;b&gt;ns: gateway controller&lt;/b&gt;" style="rounded=0;whiteSpace=wrap;html=1;fillColor=#fff2cc;strokeColor=#d6b656;align=left;horizontal=1;verticalAlign=top;" parent="1" vertex="1">
                    <mxGeometry x="345" y="905" width="682" height="138" as="geometry"/>
                </mxCell>
                <mxCell id="9gB1FN2BUZfFwONEEU95-31" style="edgeStyle=orthogonalEdgeStyle;rounded=0;orthogonalLoop=1;jettySize=auto;html=1;entryX=0;entryY=0.5;entryDx=0;entryDy=0;startArrow=none;startFill=0;" parent="1" source="9gB1FN2BUZfFwONEEU95-26" target="9gB1FN2BUZfFwONEEU95-27" edge="1">
                    <mxGeometry relative="1" as="geometry"/>
                </mxCell>
                <mxCell id="9gB1FN2BUZfFwONEEU95-26" value="kind: service&lt;br&gt;NodePort | LoadBalancer" style="rounded=0;whiteSpace=wrap;html=1;" parent="1" vertex="1">
                    <mxGeometry x="359" y="958.5" width="157" height="43" as="geometry"/>
                </mxCell>
                <mxCell id="9gB1FN2BUZfFwONEEU95-32" style="edgeStyle=orthogonalEdgeStyle;rounded=0;orthogonalLoop=1;jettySize=auto;html=1;startArrow=none;startFill=0;dashed=1;" parent="1" source="9gB1FN2BUZfFwONEEU95-27" target="9gB1FN2BUZfFwONEEU95-28" edge="1">
                    <mxGeometry relative="1" as="geometry"/>
                </mxCell>
                <mxCell id="9gB1FN2BUZfFwONEEU95-27" value="kind: Pod&lt;br&gt;Gateway Controller" style="rounded=1;whiteSpace=wrap;html=1;" parent="1" vertex="1">
                    <mxGeometry x="602" y="950" width="120" height="60" as="geometry"/>
                </mxCell>
                <mxCell id="9gB1FN2BUZfFwONEEU95-28" value="kind: GatewayClass" style="rounded=1;whiteSpace=wrap;html=1;fillColor=#dae8fc;strokeColor=#6c8ebf;" parent="1" vertex="1">
                    <mxGeometry x="808" y="950" width="120" height="60" as="geometry"/>
                </mxCell>
                <mxCell id="9gB1FN2BUZfFwONEEU95-30" style="edgeStyle=orthogonalEdgeStyle;rounded=0;orthogonalLoop=1;jettySize=auto;html=1;entryX=0;entryY=0.5;entryDx=0;entryDy=0;startArrow=none;startFill=0;" parent="1" source="9gB1FN2BUZfFwONEEU95-29" target="9gB1FN2BUZfFwONEEU95-26" edge="1">
                    <mxGeometry relative="1" as="geometry"/>
                </mxCell>
                <mxCell id="9gB1FN2BUZfFwONEEU95-29" value="Actor" style="shape=umlActor;verticalLabelPosition=bottom;verticalAlign=top;html=1;outlineConnect=0;" parent="1" vertex="1">
                    <mxGeometry x="177" y="950" width="30" height="60" as="geometry"/>
                </mxCell>
                <mxCell id="9gB1FN2BUZfFwONEEU95-33" value="&lt;b&gt;ns: some application management&lt;/b&gt;" style="rounded=0;whiteSpace=wrap;html=1;fillColor=#fff2cc;strokeColor=#d6b656;align=left;horizontal=1;verticalAlign=top;" parent="1" vertex="1">
                    <mxGeometry x="345" y="1066" width="682" height="118" as="geometry"/>
                </mxCell>
                <mxCell id="9gB1FN2BUZfFwONEEU95-61" style="edgeStyle=orthogonalEdgeStyle;rounded=0;orthogonalLoop=1;jettySize=auto;html=1;entryX=0.5;entryY=1;entryDx=0;entryDy=0;dashed=1;startArrow=none;startFill=0;strokeWidth=1;dashPattern=1 2;" parent="1" source="9gB1FN2BUZfFwONEEU95-34" target="9gB1FN2BUZfFwONEEU95-28" edge="1">
                    <mxGeometry relative="1" as="geometry"/>
                </mxCell>
                <mxCell id="9gB1FN2BUZfFwONEEU95-34" value="kind: Gateway" style="rounded=1;whiteSpace=wrap;html=1;fillColor=#dae8fc;strokeColor=#6c8ebf;" parent="1" vertex="1">
                    <mxGeometry x="808" y="1094" width="120" height="60" as="geometry"/>
                </mxCell>
                <mxCell id="9gB1FN2BUZfFwONEEU95-35" style="edgeStyle=orthogonalEdgeStyle;rounded=0;orthogonalLoop=1;jettySize=auto;html=1;entryX=0;entryY=0.5;entryDx=0;entryDy=0;dashed=1;startArrow=none;startFill=0;exitX=0.75;exitY=1;exitDx=0;exitDy=0;" parent="1" source="9gB1FN2BUZfFwONEEU95-27" target="9gB1FN2BUZfFwONEEU95-34" edge="1">
                    <mxGeometry relative="1" as="geometry">
                        <Array as="points">
                            <mxPoint x="693" y="1010"/>
                            <mxPoint x="693" y="1124"/>
                        </Array>
                    </mxGeometry>
                </mxCell>
                <mxCell id="9gB1FN2BUZfFwONEEU95-37" style="edgeStyle=orthogonalEdgeStyle;rounded=0;orthogonalLoop=1;jettySize=auto;html=1;dashed=1;startArrow=none;startFill=0;dashPattern=1 4;strokeWidth=2;" parent="1" source="9gB1FN2BUZfFwONEEU95-36" target="9gB1FN2BUZfFwONEEU95-6" edge="1">
                    <mxGeometry relative="1" as="geometry"/>
                </mxCell>
                <mxCell id="9gB1FN2BUZfFwONEEU95-36" value="Cluster Operator&lt;br&gt;Infra Provider" style="shape=umlActor;verticalLabelPosition=bottom;verticalAlign=top;html=1;outlineConnect=0;" parent="1" vertex="1">
                    <mxGeometry x="1105" y="176" width="30" height="60" as="geometry"/>
                </mxCell>
                <mxCell id="9gB1FN2BUZfFwONEEU95-39" style="edgeStyle=orthogonalEdgeStyle;rounded=0;orthogonalLoop=1;jettySize=auto;html=1;dashed=1;dashPattern=1 4;startArrow=none;startFill=0;strokeWidth=2;" parent="1" source="9gB1FN2BUZfFwONEEU95-38" target="9gB1FN2BUZfFwONEEU95-25" edge="1">
                    <mxGeometry relative="1" as="geometry"/>
                </mxCell>
                <mxCell id="9gB1FN2BUZfFwONEEU95-38" value="Infra Provider" style="shape=umlActor;verticalLabelPosition=bottom;verticalAlign=top;html=1;outlineConnect=0;" parent="1" vertex="1">
                    <mxGeometry x="1108" y="944" width="30" height="60" as="geometry"/>
                </mxCell>
                <mxCell id="9gB1FN2BUZfFwONEEU95-41" style="edgeStyle=orthogonalEdgeStyle;rounded=0;orthogonalLoop=1;jettySize=auto;html=1;entryX=1;entryY=0.5;entryDx=0;entryDy=0;dashed=1;dashPattern=1 4;startArrow=none;startFill=0;strokeWidth=2;" parent="1" source="9gB1FN2BUZfFwONEEU95-40" target="9gB1FN2BUZfFwONEEU95-33" edge="1">
                    <mxGeometry relative="1" as="geometry"/>
                </mxCell>
                <mxCell id="9gB1FN2BUZfFwONEEU95-40" value="Cluster Operator" style="shape=umlActor;verticalLabelPosition=bottom;verticalAlign=top;html=1;outlineConnect=0;" parent="1" vertex="1">
                    <mxGeometry x="1111" y="1095" width="30" height="60" as="geometry"/>
                </mxCell>
                <mxCell id="9gB1FN2BUZfFwONEEU95-42" value="&lt;b&gt;ns: application 1&lt;/b&gt;" style="rounded=0;whiteSpace=wrap;html=1;fillColor=#fff2cc;strokeColor=#d6b656;align=left;horizontal=1;verticalAlign=top;" parent="1" vertex="1">
                    <mxGeometry x="343.5" y="1207" width="679" height="182" as="geometry"/>
                </mxCell>
                <mxCell id="9gB1FN2BUZfFwONEEU95-55" style="edgeStyle=orthogonalEdgeStyle;rounded=0;orthogonalLoop=1;jettySize=auto;html=1;entryX=0;entryY=0.5;entryDx=0;entryDy=0;startArrow=none;startFill=0;strokeWidth=1;" parent="1" source="9gB1FN2BUZfFwONEEU95-43" target="9gB1FN2BUZfFwONEEU95-44" edge="1">
                    <mxGeometry relative="1" as="geometry"/>
                </mxCell>
                <mxCell id="9gB1FN2BUZfFwONEEU95-56" style="edgeStyle=orthogonalEdgeStyle;rounded=0;orthogonalLoop=1;jettySize=auto;html=1;entryX=0;entryY=0.5;entryDx=0;entryDy=0;startArrow=none;startFill=0;strokeWidth=1;" parent="1" source="9gB1FN2BUZfFwONEEU95-43" target="9gB1FN2BUZfFwONEEU95-45" edge="1">
                    <mxGeometry relative="1" as="geometry"/>
                </mxCell>
                <mxCell id="9gB1FN2BUZfFwONEEU95-43" value="kind: Service" style="rounded=0;whiteSpace=wrap;html=1;" parent="1" vertex="1">
                    <mxGeometry x="682.5" y="1265" width="120" height="39" as="geometry"/>
                </mxCell>
                <mxCell id="9gB1FN2BUZfFwONEEU95-44" value="kind: pod&lt;br&gt;Application 1 - 0" style="rounded=1;whiteSpace=wrap;html=1;" parent="1" vertex="1">
                    <mxGeometry x="885.5" y="1220" width="120" height="60" as="geometry"/>
                </mxCell>
                <mxCell id="9gB1FN2BUZfFwONEEU95-45" value="kind: pod&lt;br&gt;Application 1 - 2" style="rounded=1;whiteSpace=wrap;html=1;" parent="1" vertex="1">
                    <mxGeometry x="885.5" y="1300" width="120" height="60" as="geometry"/>
                </mxCell>
                <mxCell id="9gB1FN2BUZfFwONEEU95-60" style="edgeStyle=orthogonalEdgeStyle;rounded=0;orthogonalLoop=1;jettySize=auto;html=1;entryX=0;entryY=0.75;entryDx=0;entryDy=0;dashed=1;startArrow=none;startFill=0;strokeWidth=1;dashPattern=1 1;" parent="1" source="9gB1FN2BUZfFwONEEU95-46" target="9gB1FN2BUZfFwONEEU95-34" edge="1">
                    <mxGeometry relative="1" as="geometry">
                        <Array as="points">
                            <mxPoint x="582" y="1291"/>
                            <mxPoint x="582" y="1139"/>
                        </Array>
                    </mxGeometry>
                </mxCell>
                <mxCell id="9gB1FN2BUZfFwONEEU95-46" value="kind: &lt;br&gt;HTTPRoute&lt;br&gt;TLSRoute&lt;br&gt;GRPCRoute&lt;br&gt;TCP|UDPRoute" style="rounded=1;whiteSpace=wrap;html=1;fillColor=#dae8fc;strokeColor=#6c8ebf;" parent="1" vertex="1">
                    <mxGeometry x="420" y="1251" width="120" height="79" as="geometry"/>
                </mxCell>
                <mxCell id="9gB1FN2BUZfFwONEEU95-50" style="edgeStyle=orthogonalEdgeStyle;rounded=0;orthogonalLoop=1;jettySize=auto;html=1;dashed=1;dashPattern=1 4;startArrow=none;startFill=0;strokeWidth=2;" parent="1" source="9gB1FN2BUZfFwONEEU95-49" target="9gB1FN2BUZfFwONEEU95-11" edge="1">
                    <mxGeometry relative="1" as="geometry"/>
                </mxCell>
                <mxCell id="9gB1FN2BUZfFwONEEU95-49" value="Developer" style="shape=umlActor;verticalLabelPosition=bottom;verticalAlign=top;html=1;outlineConnect=0;" parent="1" vertex="1">
                    <mxGeometry x="1123" y="420" width="30" height="60" as="geometry"/>
                </mxCell>
                <mxCell id="9gB1FN2BUZfFwONEEU95-54" style="edgeStyle=orthogonalEdgeStyle;rounded=0;orthogonalLoop=1;jettySize=auto;html=1;dashed=1;dashPattern=1 4;startArrow=none;startFill=0;strokeWidth=2;" parent="1" source="9gB1FN2BUZfFwONEEU95-53" target="9gB1FN2BUZfFwONEEU95-42" edge="1">
                    <mxGeometry relative="1" as="geometry"/>
                </mxCell>
                <mxCell id="9gB1FN2BUZfFwONEEU95-53" value="Developer" style="shape=umlActor;verticalLabelPosition=bottom;verticalAlign=top;html=1;outlineConnect=0;" parent="1" vertex="1">
                    <mxGeometry x="1108" y="1268" width="30" height="60" as="geometry"/>
                </mxCell>
                <mxCell id="9gB1FN2BUZfFwONEEU95-57" style="edgeStyle=orthogonalEdgeStyle;rounded=0;orthogonalLoop=1;jettySize=auto;html=1;entryX=0;entryY=0.5;entryDx=0;entryDy=0;startArrow=none;startFill=0;strokeWidth=1;" parent="1" source="9gB1FN2BUZfFwONEEU95-27" target="9gB1FN2BUZfFwONEEU95-43" edge="1">
                    <mxGeometry relative="1" as="geometry"/>
                </mxCell>
                <mxCell id="9gB1FN2BUZfFwONEEU95-59" style="edgeStyle=orthogonalEdgeStyle;rounded=0;orthogonalLoop=1;jettySize=auto;html=1;entryX=0.992;entryY=0.633;entryDx=0;entryDy=0;entryPerimeter=0;dashed=1;startArrow=none;startFill=0;strokeWidth=1;" parent="1" source="9gB1FN2BUZfFwONEEU95-27" target="9gB1FN2BUZfFwONEEU95-46" edge="1">
                    <mxGeometry relative="1" as="geometry">
                        <Array as="points">
                            <mxPoint x="627" y="1301"/>
                        </Array>
                    </mxGeometry>
                </mxCell>
            </root>
        </mxGraphModel>
    </diagram>
    <diagram id="pT2EtKZqBxceq87cdcn6" name="Кактус">
        <mxGraphModel dx="1791" dy="1013" grid="0" gridSize="10" guides="1" tooltips="1" connect="1" arrows="1" fold="1" page="0" pageScale="1" pageWidth="1169" pageHeight="827" math="0" shadow="0">
            <root>
                <mxCell id="aPEfzOhBmqBkzlGIEb-p-0"/>
                <mxCell id="aPEfzOhBmqBkzlGIEb-p-1" parent="aPEfzOhBmqBkzlGIEb-p-0"/>
                <mxCell id="FGpAOPEN_ae-9I46JGdh-0" value="" style="rounded=0;whiteSpace=wrap;html=1;dashed=1;dashPattern=1 4;fillColor=#d5e8d4;strokeColor=#82b366;" vertex="1" parent="aPEfzOhBmqBkzlGIEb-p-1">
                    <mxGeometry x="106" y="117" width="931" height="441" as="geometry"/>
                </mxCell>
                <mxCell id="RS84lyi7huy2PCzkYKG5-2" style="edgeStyle=orthogonalEdgeStyle;rounded=0;orthogonalLoop=1;jettySize=auto;html=1;entryX=0;entryY=0.5;entryDx=0;entryDy=0;startArrow=none;startFill=0;strokeWidth=1;" edge="1" parent="aPEfzOhBmqBkzlGIEb-p-1" source="FGpAOPEN_ae-9I46JGdh-1" target="RS84lyi7huy2PCzkYKG5-0">
                    <mxGeometry relative="1" as="geometry"/>
                </mxCell>
                <mxCell id="RS84lyi7huy2PCzkYKG5-3" style="edgeStyle=orthogonalEdgeStyle;rounded=0;orthogonalLoop=1;jettySize=auto;html=1;startArrow=none;startFill=0;strokeWidth=1;" edge="1" parent="aPEfzOhBmqBkzlGIEb-p-1" source="FGpAOPEN_ae-9I46JGdh-1" target="RS84lyi7huy2PCzkYKG5-1">
                    <mxGeometry relative="1" as="geometry"/>
                </mxCell>
                <mxCell id="RS84lyi7huy2PCzkYKG5-4" value="&lt;font size=&quot;1&quot;&gt;&lt;b style=&quot;font-size: 14px&quot;&gt;NAT&lt;/b&gt;&lt;/font&gt;" style="edgeLabel;html=1;align=center;verticalAlign=middle;resizable=0;points=[];" vertex="1" connectable="0" parent="RS84lyi7huy2PCzkYKG5-3">
                    <mxGeometry x="-0.4971" relative="1" as="geometry">
                        <mxPoint x="-12" as="offset"/>
                    </mxGeometry>
                </mxCell>
                <mxCell id="FGpAOPEN_ae-9I46JGdh-1" value="kind: Service&lt;br&gt;NodePort | LoadBalancer" style="rounded=0;whiteSpace=wrap;html=1;" vertex="1" parent="aPEfzOhBmqBkzlGIEb-p-1">
                    <mxGeometry x="162" y="209" width="160" height="48" as="geometry"/>
                </mxCell>
                <mxCell id="RS84lyi7huy2PCzkYKG5-0" value="kind: Pod&lt;br&gt;app-pod-0" style="rounded=1;whiteSpace=wrap;html=1;" vertex="1" parent="aPEfzOhBmqBkzlGIEb-p-1">
                    <mxGeometry x="453" y="161" width="120" height="60" as="geometry"/>
                </mxCell>
                <mxCell id="RS84lyi7huy2PCzkYKG5-1" value="kind: Pod&lt;br&gt;app-pod-1" style="rounded=1;whiteSpace=wrap;html=1;" vertex="1" parent="aPEfzOhBmqBkzlGIEb-p-1">
                    <mxGeometry x="453" y="247" width="120" height="60" as="geometry"/>
                </mxCell>
                <mxCell id="RS84lyi7huy2PCzkYKG5-6" style="edgeStyle=orthogonalEdgeStyle;rounded=0;orthogonalLoop=1;jettySize=auto;html=1;entryX=0;entryY=0.5;entryDx=0;entryDy=0;startArrow=none;startFill=0;strokeWidth=1;" edge="1" parent="aPEfzOhBmqBkzlGIEb-p-1" source="RS84lyi7huy2PCzkYKG5-5" target="FGpAOPEN_ae-9I46JGdh-1">
                    <mxGeometry relative="1" as="geometry"/>
                </mxCell>
                <mxCell id="RS84lyi7huy2PCzkYKG5-7" value="&lt;font style=&quot;font-size: 14px&quot;&gt;&lt;b&gt;TCP/UDP&lt;/b&gt;&lt;/font&gt;" style="edgeLabel;html=1;align=center;verticalAlign=middle;resizable=0;points=[];" vertex="1" connectable="0" parent="RS84lyi7huy2PCzkYKG5-6">
                    <mxGeometry x="-0.2" y="1" relative="1" as="geometry">
                        <mxPoint as="offset"/>
                    </mxGeometry>
                </mxCell>
                <mxCell id="RS84lyi7huy2PCzkYKG5-5" value="Actor" style="shape=umlActor;verticalLabelPosition=bottom;verticalAlign=top;html=1;outlineConnect=0;" vertex="1" parent="aPEfzOhBmqBkzlGIEb-p-1">
                    <mxGeometry x="-18" y="203" width="30" height="60" as="geometry"/>
                </mxCell>
                <mxCell id="RS84lyi7huy2PCzkYKG5-13" value="&lt;span style=&quot;font-size: 13px&quot;&gt;&lt;b&gt;NAT&lt;/b&gt;&lt;/span&gt;" style="edgeStyle=orthogonalEdgeStyle;rounded=0;orthogonalLoop=1;jettySize=auto;html=1;entryX=0;entryY=0.5;entryDx=0;entryDy=0;startArrow=none;startFill=0;strokeWidth=1;" edge="1" parent="aPEfzOhBmqBkzlGIEb-p-1" source="RS84lyi7huy2PCzkYKG5-8" target="RS84lyi7huy2PCzkYKG5-9">
                    <mxGeometry relative="1" as="geometry"/>
                </mxCell>
                <mxCell id="RS84lyi7huy2PCzkYKG5-8" value="kind: Service&lt;br&gt;NodePort | LoadBalancer" style="rounded=0;whiteSpace=wrap;html=1;" vertex="1" parent="aPEfzOhBmqBkzlGIEb-p-1">
                    <mxGeometry x="156" y="406" width="160" height="48" as="geometry"/>
                </mxCell>
                <mxCell id="RS84lyi7huy2PCzkYKG5-14" style="edgeStyle=orthogonalEdgeStyle;rounded=0;orthogonalLoop=1;jettySize=auto;html=1;entryX=0;entryY=0.5;entryDx=0;entryDy=0;startArrow=none;startFill=0;strokeWidth=1;" edge="1" parent="aPEfzOhBmqBkzlGIEb-p-1" source="RS84lyi7huy2PCzkYKG5-9" target="RS84lyi7huy2PCzkYKG5-10">
                    <mxGeometry relative="1" as="geometry"/>
                </mxCell>
                <mxCell id="RS84lyi7huy2PCzkYKG5-9" value="kind: Pod&lt;br&gt;ingress|gateway controller" style="rounded=1;whiteSpace=wrap;html=1;" vertex="1" parent="aPEfzOhBmqBkzlGIEb-p-1">
                    <mxGeometry x="394" y="400" width="165" height="60" as="geometry"/>
                </mxCell>
                <mxCell id="RS84lyi7huy2PCzkYKG5-15" style="edgeStyle=orthogonalEdgeStyle;rounded=0;orthogonalLoop=1;jettySize=auto;html=1;entryX=0;entryY=0.5;entryDx=0;entryDy=0;startArrow=none;startFill=0;strokeWidth=1;" edge="1" parent="aPEfzOhBmqBkzlGIEb-p-1" source="RS84lyi7huy2PCzkYKG5-10" target="RS84lyi7huy2PCzkYKG5-11">
                    <mxGeometry relative="1" as="geometry"/>
                </mxCell>
                <mxCell id="RS84lyi7huy2PCzkYKG5-17" value="&lt;b&gt;&lt;font style=&quot;font-size: 14px&quot;&gt;NAT&lt;/font&gt;&lt;/b&gt;" style="edgeLabel;html=1;align=center;verticalAlign=middle;resizable=0;points=[];" vertex="1" connectable="0" parent="RS84lyi7huy2PCzkYKG5-15">
                    <mxGeometry x="-0.2574" y="1" relative="1" as="geometry">
                        <mxPoint x="1" as="offset"/>
                    </mxGeometry>
                </mxCell>
                <mxCell id="RS84lyi7huy2PCzkYKG5-16" style="edgeStyle=orthogonalEdgeStyle;rounded=0;orthogonalLoop=1;jettySize=auto;html=1;entryX=0;entryY=0.5;entryDx=0;entryDy=0;startArrow=none;startFill=0;strokeWidth=1;" edge="1" parent="aPEfzOhBmqBkzlGIEb-p-1" source="RS84lyi7huy2PCzkYKG5-10" target="RS84lyi7huy2PCzkYKG5-12">
                    <mxGeometry relative="1" as="geometry"/>
                </mxCell>
                <mxCell id="RS84lyi7huy2PCzkYKG5-10" value="kind: Service&lt;br&gt;ClusterIP" style="rounded=0;whiteSpace=wrap;html=1;" vertex="1" parent="aPEfzOhBmqBkzlGIEb-p-1">
                    <mxGeometry x="619" y="406" width="160" height="48" as="geometry"/>
                </mxCell>
                <mxCell id="RS84lyi7huy2PCzkYKG5-11" value="kind: Pod&lt;br&gt;app-pod-0" style="rounded=1;whiteSpace=wrap;html=1;" vertex="1" parent="aPEfzOhBmqBkzlGIEb-p-1">
                    <mxGeometry x="868" y="353" width="120" height="60" as="geometry"/>
                </mxCell>
                <mxCell id="RS84lyi7huy2PCzkYKG5-12" value="kind: Pod&lt;br&gt;app-pod-1" style="rounded=1;whiteSpace=wrap;html=1;" vertex="1" parent="aPEfzOhBmqBkzlGIEb-p-1">
                    <mxGeometry x="868" y="448" width="120" height="60" as="geometry"/>
                </mxCell>
                <mxCell id="RS84lyi7huy2PCzkYKG5-19" value="&lt;b&gt;&lt;font style=&quot;font-size: 14px&quot;&gt;TCP/UDP&lt;/font&gt;&lt;/b&gt;" style="edgeStyle=orthogonalEdgeStyle;rounded=0;orthogonalLoop=1;jettySize=auto;html=1;entryX=0;entryY=0.5;entryDx=0;entryDy=0;startArrow=none;startFill=0;strokeWidth=1;" edge="1" parent="aPEfzOhBmqBkzlGIEb-p-1" source="RS84lyi7huy2PCzkYKG5-18" target="RS84lyi7huy2PCzkYKG5-8">
                    <mxGeometry relative="1" as="geometry"/>
                </mxCell>
                <mxCell id="RS84lyi7huy2PCzkYKG5-18" value="Actor" style="shape=umlActor;verticalLabelPosition=bottom;verticalAlign=top;html=1;outlineConnect=0;" vertex="1" parent="aPEfzOhBmqBkzlGIEb-p-1">
                    <mxGeometry x="-16" y="400" width="30" height="60" as="geometry"/>
                </mxCell>
            </root>
        </mxGraphModel>
    </diagram>
    <diagram id="S-Q8c_cKlJfBH0zKJcgg" name="envoy">
        <mxGraphModel dx="937" dy="166" grid="0" gridSize="10" guides="1" tooltips="1" connect="1" arrows="1" fold="1" page="0" pageScale="1" pageWidth="827" pageHeight="1169" math="0" shadow="0">
            <root>
                <mxCell id="0"/>
                <mxCell id="1" parent="0"/>
                <mxCell id="yUha5N-lusLud4RcbKXb-1" value="" style="rounded=0;whiteSpace=wrap;html=1;fillColor=#d5e8d4;strokeColor=#82b366;" parent="1" vertex="1">
                    <mxGeometry x="326" y="776" width="971" height="649" as="geometry"/>
                </mxCell>
                <mxCell id="yUha5N-lusLud4RcbKXb-2" value="&lt;b&gt;ns: application 1&lt;/b&gt;" style="rounded=0;whiteSpace=wrap;html=1;fillColor=#fff2cc;strokeColor=#d6b656;align=left;horizontal=1;verticalAlign=top;" parent="1" vertex="1">
                    <mxGeometry x="364" y="1226" width="679" height="182" as="geometry"/>
                </mxCell>
                <mxCell id="yUha5N-lusLud4RcbKXb-19" value="&lt;b&gt;ns: application 1&lt;/b&gt;" style="rounded=0;whiteSpace=wrap;html=1;fillColor=#fff2cc;strokeColor=#d6b656;align=left;horizontal=1;verticalAlign=top;" parent="1" vertex="1">
                    <mxGeometry x="343.5" y="1207" width="679" height="182" as="geometry"/>
                </mxCell>
                <mxCell id="yUha5N-lusLud4RcbKXb-58" value="" style="rounded=1;whiteSpace=wrap;html=1;fillColor=#dae8fc;strokeColor=#6c8ebf;" parent="1" vertex="1">
                    <mxGeometry x="440" y="1271" width="120" height="79" as="geometry"/>
                </mxCell>
                <mxCell id="yUha5N-lusLud4RcbKXb-57" value="" style="rounded=1;whiteSpace=wrap;html=1;fillColor=#dae8fc;strokeColor=#6c8ebf;" parent="1" vertex="1">
                    <mxGeometry x="430" y="1261" width="120" height="79" as="geometry"/>
                </mxCell>
                <mxCell id="yUha5N-lusLud4RcbKXb-3" value="&lt;b&gt;ns: gateway controller&lt;/b&gt;" style="rounded=0;whiteSpace=wrap;html=1;fillColor=#fff2cc;strokeColor=#d6b656;align=left;horizontal=1;verticalAlign=top;" parent="1" vertex="1">
                    <mxGeometry x="345" y="798" width="682" height="245" as="geometry"/>
                </mxCell>
                <mxCell id="yUha5N-lusLud4RcbKXb-52" style="edgeStyle=none;html=1;entryX=0;entryY=0.5;entryDx=0;entryDy=0;" parent="1" source="yUha5N-lusLud4RcbKXb-5" target="yUha5N-lusLud4RcbKXb-7" edge="1">
                    <mxGeometry relative="1" as="geometry"/>
                </mxCell>
                <mxCell id="yUha5N-lusLud4RcbKXb-5" value="kind: service&lt;br&gt;NodePort | LoadBalancer" style="rounded=0;whiteSpace=wrap;html=1;" parent="1" vertex="1">
                    <mxGeometry x="361" y="938.5" width="157" height="43" as="geometry"/>
                </mxCell>
                <mxCell id="yUha5N-lusLud4RcbKXb-6" style="edgeStyle=orthogonalEdgeStyle;rounded=0;orthogonalLoop=1;jettySize=auto;html=1;startArrow=none;startFill=0;dashed=1;exitX=1;exitY=0.5;exitDx=0;exitDy=0;" parent="1" source="yUha5N-lusLud4RcbKXb-34" target="yUha5N-lusLud4RcbKXb-8" edge="1">
                    <mxGeometry relative="1" as="geometry"/>
                </mxCell>
                <mxCell id="yUha5N-lusLud4RcbKXb-7" value="kind: Pod&lt;br&gt;Envoy Proxy" style="rounded=1;whiteSpace=wrap;html=1;" parent="1" vertex="1">
                    <mxGeometry x="603" y="930" width="120" height="60" as="geometry"/>
                </mxCell>
                <mxCell id="yUha5N-lusLud4RcbKXb-46" style="edgeStyle=orthogonalEdgeStyle;html=1;entryX=1;entryY=0.5;entryDx=0;entryDy=0;exitX=0.25;exitY=0;exitDx=0;exitDy=0;dashed=1;dashPattern=1 2;strokeColor=#FF0000;" parent="1" source="yUha5N-lusLud4RcbKXb-8" target="yUha5N-lusLud4RcbKXb-44" edge="1">
                    <mxGeometry relative="1" as="geometry"/>
                </mxCell>
                <mxCell id="yUha5N-lusLud4RcbKXb-8" value="kind: GatewayClass" style="rounded=1;whiteSpace=wrap;html=1;fillColor=#dae8fc;strokeColor=#6c8ebf;" parent="1" vertex="1">
                    <mxGeometry x="832" y="950" width="120" height="60" as="geometry"/>
                </mxCell>
                <mxCell id="yUha5N-lusLud4RcbKXb-10" value="Actor" style="shape=umlActor;verticalLabelPosition=bottom;verticalAlign=top;html=1;outlineConnect=0;" parent="1" vertex="1">
                    <mxGeometry x="177" y="950" width="30" height="60" as="geometry"/>
                </mxCell>
                <mxCell id="yUha5N-lusLud4RcbKXb-11" value="&lt;b&gt;ns: some application management&lt;/b&gt;" style="rounded=0;whiteSpace=wrap;html=1;fillColor=#fff2cc;strokeColor=#d6b656;align=left;horizontal=1;verticalAlign=top;" parent="1" vertex="1">
                    <mxGeometry x="345" y="1056" width="682" height="128" as="geometry"/>
                </mxCell>
                <mxCell id="yUha5N-lusLud4RcbKXb-12" style="edgeStyle=orthogonalEdgeStyle;rounded=0;orthogonalLoop=1;jettySize=auto;html=1;entryX=0.5;entryY=1;entryDx=0;entryDy=0;dashed=1;startArrow=none;startFill=0;strokeWidth=1;dashPattern=1 2;strokeColor=#FF0000;" parent="1" source="yUha5N-lusLud4RcbKXb-13" target="yUha5N-lusLud4RcbKXb-8" edge="1">
                    <mxGeometry relative="1" as="geometry"/>
                </mxCell>
                <mxCell id="yUha5N-lusLud4RcbKXb-47" style="edgeStyle=orthogonalEdgeStyle;html=1;entryX=1;entryY=0.5;entryDx=0;entryDy=0;exitX=0.25;exitY=0;exitDx=0;exitDy=0;dashed=1;dashPattern=1 2;strokeColor=#FF0000;" parent="1" source="yUha5N-lusLud4RcbKXb-13" target="yUha5N-lusLud4RcbKXb-45" edge="1">
                    <mxGeometry relative="1" as="geometry"/>
                </mxCell>
                <mxCell id="yUha5N-lusLud4RcbKXb-13" value="kind: Gateway" style="rounded=1;whiteSpace=wrap;html=1;fillColor=#dae8fc;strokeColor=#6c8ebf;" parent="1" vertex="1">
                    <mxGeometry x="832" y="1100" width="120" height="60" as="geometry"/>
                </mxCell>
                <mxCell id="yUha5N-lusLud4RcbKXb-15" style="edgeStyle=orthogonalEdgeStyle;rounded=0;orthogonalLoop=1;jettySize=auto;html=1;dashed=1;dashPattern=1 4;startArrow=none;startFill=0;strokeWidth=2;" parent="1" source="yUha5N-lusLud4RcbKXb-16" target="yUha5N-lusLud4RcbKXb-3" edge="1">
                    <mxGeometry relative="1" as="geometry"/>
                </mxCell>
                <mxCell id="yUha5N-lusLud4RcbKXb-16" value="Infra Provider" style="shape=umlActor;verticalLabelPosition=bottom;verticalAlign=top;html=1;outlineConnect=0;" parent="1" vertex="1">
                    <mxGeometry x="1108" y="890" width="30" height="60" as="geometry"/>
                </mxCell>
                <mxCell id="yUha5N-lusLud4RcbKXb-17" style="edgeStyle=orthogonalEdgeStyle;rounded=0;orthogonalLoop=1;jettySize=auto;html=1;entryX=1;entryY=0.5;entryDx=0;entryDy=0;dashed=1;dashPattern=1 4;startArrow=none;startFill=0;strokeWidth=2;" parent="1" source="yUha5N-lusLud4RcbKXb-18" target="yUha5N-lusLud4RcbKXb-11" edge="1">
                    <mxGeometry relative="1" as="geometry"/>
                </mxCell>
                <mxCell id="yUha5N-lusLud4RcbKXb-18" value="Cluster Operator" style="shape=umlActor;verticalLabelPosition=bottom;verticalAlign=top;html=1;outlineConnect=0;" parent="1" vertex="1">
                    <mxGeometry x="1113" y="1090" width="30" height="60" as="geometry"/>
                </mxCell>
                <mxCell id="yUha5N-lusLud4RcbKXb-20" style="edgeStyle=orthogonalEdgeStyle;rounded=0;orthogonalLoop=1;jettySize=auto;html=1;entryX=0;entryY=0.5;entryDx=0;entryDy=0;startArrow=none;startFill=0;strokeWidth=1;dashed=1;" parent="1" source="yUha5N-lusLud4RcbKXb-22" target="yUha5N-lusLud4RcbKXb-23" edge="1">
                    <mxGeometry relative="1" as="geometry"/>
                </mxCell>
                <mxCell id="yUha5N-lusLud4RcbKXb-21" style="edgeStyle=orthogonalEdgeStyle;rounded=0;orthogonalLoop=1;jettySize=auto;html=1;entryX=0;entryY=0.5;entryDx=0;entryDy=0;startArrow=none;startFill=0;strokeWidth=1;dashed=1;" parent="1" source="yUha5N-lusLud4RcbKXb-22" target="yUha5N-lusLud4RcbKXb-24" edge="1">
                    <mxGeometry relative="1" as="geometry"/>
                </mxCell>
                <mxCell id="yUha5N-lusLud4RcbKXb-22" value="kind: Service|Endpoint" style="rounded=0;whiteSpace=wrap;html=1;" parent="1" vertex="1">
                    <mxGeometry x="695" y="1268" width="140" height="39" as="geometry"/>
                </mxCell>
                <mxCell id="yUha5N-lusLud4RcbKXb-23" value="kind: pod&lt;br&gt;Application 1 - 0" style="rounded=1;whiteSpace=wrap;html=1;" parent="1" vertex="1">
                    <mxGeometry x="885.5" y="1220" width="120" height="60" as="geometry"/>
                </mxCell>
                <mxCell id="yUha5N-lusLud4RcbKXb-24" value="kind: pod&lt;br&gt;Application 1 - 2" style="rounded=1;whiteSpace=wrap;html=1;" parent="1" vertex="1">
                    <mxGeometry x="885.5" y="1300" width="120" height="60" as="geometry"/>
                </mxCell>
                <mxCell id="yUha5N-lusLud4RcbKXb-26" value="kind: &lt;br&gt;HTTPRoute&lt;br&gt;TLSRoute&lt;br&gt;GRPCRoute&lt;br&gt;TCP|UDPRoute" style="rounded=1;whiteSpace=wrap;html=1;fillColor=#dae8fc;strokeColor=#6c8ebf;" parent="1" vertex="1">
                    <mxGeometry x="420" y="1251" width="120" height="79" as="geometry"/>
                </mxCell>
                <mxCell id="yUha5N-lusLud4RcbKXb-27" style="edgeStyle=orthogonalEdgeStyle;rounded=0;orthogonalLoop=1;jettySize=auto;html=1;dashed=1;dashPattern=1 4;startArrow=none;startFill=0;strokeWidth=2;" parent="1" source="yUha5N-lusLud4RcbKXb-28" target="yUha5N-lusLud4RcbKXb-19" edge="1">
                    <mxGeometry relative="1" as="geometry"/>
                </mxCell>
                <mxCell id="yUha5N-lusLud4RcbKXb-28" value="Developer" style="shape=umlActor;verticalLabelPosition=bottom;verticalAlign=top;html=1;outlineConnect=0;" parent="1" vertex="1">
                    <mxGeometry x="1108" y="1268" width="30" height="60" as="geometry"/>
                </mxCell>
                <mxCell id="yUha5N-lusLud4RcbKXb-29" style="edgeStyle=orthogonalEdgeStyle;rounded=0;orthogonalLoop=1;jettySize=auto;html=1;entryX=0;entryY=0.5;entryDx=0;entryDy=0;startArrow=none;startFill=0;strokeWidth=1;dashed=1;" parent="1" source="yUha5N-lusLud4RcbKXb-7" target="yUha5N-lusLud4RcbKXb-22" edge="1">
                    <mxGeometry relative="1" as="geometry"/>
                </mxCell>
                <mxCell id="yUha5N-lusLud4RcbKXb-30" style="edgeStyle=orthogonalEdgeStyle;rounded=0;orthogonalLoop=1;jettySize=auto;html=1;entryX=0.992;entryY=0.633;entryDx=0;entryDy=0;entryPerimeter=0;dashed=1;startArrow=none;startFill=0;strokeWidth=1;exitX=0.25;exitY=1;exitDx=0;exitDy=0;" parent="1" source="yUha5N-lusLud4RcbKXb-34" target="yUha5N-lusLud4RcbKXb-26" edge="1">
                    <mxGeometry relative="1" as="geometry">
                        <Array as="points">
                            <mxPoint x="653" y="1301"/>
                        </Array>
                    </mxGeometry>
                </mxCell>
                <mxCell id="yUha5N-lusLud4RcbKXb-32" style="edgeStyle=orthogonalEdgeStyle;html=1;entryX=0.5;entryY=0;entryDx=0;entryDy=0;dashed=1;" parent="1" source="yUha5N-lusLud4RcbKXb-31" target="yUha5N-lusLud4RcbKXb-8" edge="1">
                    <mxGeometry relative="1" as="geometry"/>
                </mxCell>
                <mxCell id="yUha5N-lusLud4RcbKXb-35" style="edgeStyle=none;html=1;entryX=0.5;entryY=0;entryDx=0;entryDy=0;dashed=1;" parent="1" source="yUha5N-lusLud4RcbKXb-31" target="yUha5N-lusLud4RcbKXb-7" edge="1">
                    <mxGeometry relative="1" as="geometry"/>
                </mxCell>
                <mxCell id="yUha5N-lusLud4RcbKXb-42" value="Create | Delete" style="edgeLabel;html=1;align=center;verticalAlign=middle;resizable=0;points=[];" parent="yUha5N-lusLud4RcbKXb-35" vertex="1" connectable="0">
                    <mxGeometry x="-0.2559" relative="1" as="geometry">
                        <mxPoint x="-2" y="-2" as="offset"/>
                    </mxGeometry>
                </mxCell>
                <mxCell id="yUha5N-lusLud4RcbKXb-36" style="edgeStyle=orthogonalEdgeStyle;html=1;dashed=1;entryX=1;entryY=0.25;entryDx=0;entryDy=0;" parent="1" source="yUha5N-lusLud4RcbKXb-31" target="yUha5N-lusLud4RcbKXb-26" edge="1">
                    <mxGeometry relative="1" as="geometry">
                        <mxPoint x="525" y="1251" as="targetPoint"/>
                        <Array as="points">
                            <mxPoint x="561" y="840"/>
                            <mxPoint x="561" y="1271"/>
                        </Array>
                    </mxGeometry>
                </mxCell>
                <mxCell id="yUha5N-lusLud4RcbKXb-43" value="Watch | Read" style="edgeLabel;html=1;align=center;verticalAlign=middle;resizable=0;points=[];" parent="yUha5N-lusLud4RcbKXb-36" vertex="1" connectable="0">
                    <mxGeometry x="-0.0712" y="-1" relative="1" as="geometry">
                        <mxPoint x="-2" y="-144" as="offset"/>
                    </mxGeometry>
                </mxCell>
                <mxCell id="yUha5N-lusLud4RcbKXb-39" style="edgeStyle=orthogonalEdgeStyle;html=1;entryX=0.5;entryY=0;entryDx=0;entryDy=0;exitX=0;exitY=0.25;exitDx=0;exitDy=0;dashed=1;" parent="1" source="yUha5N-lusLud4RcbKXb-31" target="yUha5N-lusLud4RcbKXb-5" edge="1">
                    <mxGeometry relative="1" as="geometry"/>
                </mxCell>
                <mxCell id="yUha5N-lusLud4RcbKXb-40" value="Create | Delete" style="edgeLabel;html=1;align=center;verticalAlign=middle;resizable=0;points=[];" parent="yUha5N-lusLud4RcbKXb-39" vertex="1" connectable="0">
                    <mxGeometry x="-0.23" y="1" relative="1" as="geometry">
                        <mxPoint as="offset"/>
                    </mxGeometry>
                </mxCell>
                <mxCell id="yUha5N-lusLud4RcbKXb-55" style="edgeStyle=orthogonalEdgeStyle;html=1;entryX=1;entryY=0.5;entryDx=0;entryDy=0;exitX=1;exitY=0.25;exitDx=0;exitDy=0;dashed=1;" parent="1" source="yUha5N-lusLud4RcbKXb-31" target="yUha5N-lusLud4RcbKXb-54" edge="1">
                    <mxGeometry relative="1" as="geometry">
                        <Array as="points">
                            <mxPoint x="992" y="825"/>
                            <mxPoint x="992" y="1150"/>
                        </Array>
                    </mxGeometry>
                </mxCell>
                <mxCell id="yUha5N-lusLud4RcbKXb-56" value="Watch | Read" style="edgeLabel;html=1;align=center;verticalAlign=middle;resizable=0;points=[];" parent="yUha5N-lusLud4RcbKXb-55" vertex="1" connectable="0">
                    <mxGeometry x="-0.5108" relative="1" as="geometry">
                        <mxPoint as="offset"/>
                    </mxGeometry>
                </mxCell>
                <mxCell id="yUha5N-lusLud4RcbKXb-31" value="kind: Pod&lt;br&gt;Envoy Gateway Controller" style="rounded=1;whiteSpace=wrap;html=1;" parent="1" vertex="1">
                    <mxGeometry x="603" y="810" width="120" height="60" as="geometry"/>
                </mxCell>
                <mxCell id="yUha5N-lusLud4RcbKXb-33" value="kind: Pod&lt;br&gt;Envoy Proxy" style="rounded=1;whiteSpace=wrap;html=1;" parent="1" vertex="1">
                    <mxGeometry x="613" y="940" width="120" height="60" as="geometry"/>
                </mxCell>
                <mxCell id="yUha5N-lusLud4RcbKXb-37" style="edgeStyle=orthogonalEdgeStyle;html=1;entryX=0;entryY=0.25;entryDx=0;entryDy=0;" parent="1" source="yUha5N-lusLud4RcbKXb-34" target="yUha5N-lusLud4RcbKXb-23" edge="1">
                    <mxGeometry relative="1" as="geometry">
                        <Array as="points">
                            <mxPoint x="690" y="1235"/>
                        </Array>
                    </mxGeometry>
                </mxCell>
                <mxCell id="yUha5N-lusLud4RcbKXb-38" style="edgeStyle=orthogonalEdgeStyle;html=1;entryX=0;entryY=0.75;entryDx=0;entryDy=0;" parent="1" source="yUha5N-lusLud4RcbKXb-34" target="yUha5N-lusLud4RcbKXb-24" edge="1">
                    <mxGeometry relative="1" as="geometry">
                        <Array as="points">
                            <mxPoint x="677" y="1345"/>
                        </Array>
                    </mxGeometry>
                </mxCell>
                <mxCell id="yUha5N-lusLud4RcbKXb-34" value="kind: Pod&lt;br&gt;Envoy Proxy" style="rounded=1;whiteSpace=wrap;html=1;" parent="1" vertex="1">
                    <mxGeometry x="623" y="950" width="120" height="60" as="geometry"/>
                </mxCell>
                <mxCell id="yUha5N-lusLud4RcbKXb-44" value="kind: EnvoyProxy" style="rounded=1;whiteSpace=wrap;html=1;fillColor=#dae8fc;strokeColor=#6c8ebf;" parent="1" vertex="1">
                    <mxGeometry x="712" y="884" width="120" height="37" as="geometry"/>
                </mxCell>
                <mxCell id="yUha5N-lusLud4RcbKXb-45" value="kind: EnvoyProxy" style="rounded=1;whiteSpace=wrap;html=1;fillColor=#dae8fc;strokeColor=#6c8ebf;" parent="1" vertex="1">
                    <mxGeometry x="712" y="1063" width="120" height="37" as="geometry"/>
                </mxCell>
                <mxCell id="yUha5N-lusLud4RcbKXb-4" style="edgeStyle=orthogonalEdgeStyle;rounded=0;orthogonalLoop=1;jettySize=auto;html=1;entryX=0;entryY=0.5;entryDx=0;entryDy=0;startArrow=none;startFill=0;" parent="1" source="yUha5N-lusLud4RcbKXb-50" target="yUha5N-lusLud4RcbKXb-34" edge="1">
                    <mxGeometry relative="1" as="geometry"/>
                </mxCell>
                <mxCell id="yUha5N-lusLud4RcbKXb-51" style="edgeStyle=none;html=1;entryX=0;entryY=0.5;entryDx=0;entryDy=0;" parent="1" source="yUha5N-lusLud4RcbKXb-49" target="yUha5N-lusLud4RcbKXb-33" edge="1">
                    <mxGeometry relative="1" as="geometry"/>
                </mxCell>
                <mxCell id="yUha5N-lusLud4RcbKXb-49" value="kind: service&lt;br&gt;NodePort | LoadBalancer" style="rounded=0;whiteSpace=wrap;html=1;" parent="1" vertex="1">
                    <mxGeometry x="369" y="948.5" width="157" height="43" as="geometry"/>
                </mxCell>
                <mxCell id="yUha5N-lusLud4RcbKXb-50" value="kind: service&lt;br&gt;NodePort | LoadBalancer" style="rounded=0;whiteSpace=wrap;html=1;" parent="1" vertex="1">
                    <mxGeometry x="379" y="958.5" width="157" height="43" as="geometry"/>
                </mxCell>
                <mxCell id="yUha5N-lusLud4RcbKXb-9" style="edgeStyle=orthogonalEdgeStyle;rounded=0;orthogonalLoop=1;jettySize=auto;html=1;entryX=0;entryY=0.5;entryDx=0;entryDy=0;startArrow=none;startFill=0;" parent="1" source="yUha5N-lusLud4RcbKXb-10" target="yUha5N-lusLud4RcbKXb-50" edge="1">
                    <mxGeometry relative="1" as="geometry"/>
                </mxCell>
                <mxCell id="yUha5N-lusLud4RcbKXb-53" value="kind: Gateway" style="rounded=1;whiteSpace=wrap;html=1;fillColor=#dae8fc;strokeColor=#6c8ebf;" parent="1" vertex="1">
                    <mxGeometry x="842" y="1110" width="120" height="60" as="geometry"/>
                </mxCell>
                <mxCell id="yUha5N-lusLud4RcbKXb-54" value="kind: Gateway" style="rounded=1;whiteSpace=wrap;html=1;fillColor=#dae8fc;strokeColor=#6c8ebf;" parent="1" vertex="1">
                    <mxGeometry x="852" y="1120" width="120" height="60" as="geometry"/>
                </mxCell>
                <mxCell id="yUha5N-lusLud4RcbKXb-48" style="edgeStyle=orthogonalEdgeStyle;html=1;entryX=0;entryY=0.5;entryDx=0;entryDy=0;dashed=1;dashPattern=1 2;strokeColor=#FF0000;" parent="1" source="yUha5N-lusLud4RcbKXb-26" target="yUha5N-lusLud4RcbKXb-54" edge="1">
                    <mxGeometry relative="1" as="geometry">
                        <Array as="points">
                            <mxPoint x="609" y="1291"/>
                            <mxPoint x="609" y="1150"/>
                        </Array>
                    </mxGeometry>
                </mxCell>
            </root>
        </mxGraphModel>
    </diagram>
</mxfile>